<svg width="637" height="110" viewBox="0 0 637 110" fill="none" xmlns="http://www.w3.org/2000/svg">
    <g clip-path="url(#clip0_14_127)">
        <path d="M79.5146 22.114V50.6603H55.9034V109.002H23.5977V50.6739H3.05176e-05V22.114H79.5146Z" fill="white"/>
        <path d="M165.903 47.8098L172.723 0.0153809H206.265L187.64 86.9167H151.612L142.292 42.8552L132.973 86.9167H96.9446L78.3056 0.0153809H111.848L118.681 47.8098L128 0.0153809H156.57L165.89 47.8098H165.903Z" fill="white"/>
        <path d="M242.361 62.0897H279.626V86.9167H210.056V0.0153809H277.14V24.8424H242.348V31.0458H274.64V55.8728H242.348V62.0761L242.361 62.0897Z" fill="white"/>
        <path d="M318.181 80.4691H351.723V109.015H285.875V22.114H318.167V80.4691H318.181Z" fill="white"/>
        <path d="M379.084 22.114L388.403 73.0169L397.723 22.114H433.751L409.528 109.015H367.278L343.055 22.114H379.07H379.084Z" fill="white"/>
        <path d="M469.833 84.1884H507.098V109.015H437.527V22.114H504.612V46.941H469.82V53.1444H502.112V77.9714H469.82V84.1748L469.833 84.1884Z" fill="white"/>
        <path d="M559.333 22.114V109.015H527.027V51.9092L508.402 58.1125V30.815L529.513 22.1276H559.333V22.114Z" fill="white"/>
        <path d="M610.916 81.7043H635.75V109.015H568.666V84.1884C568.666 84.1884 603.458 63.0807 603.458 51.9092C603.458 48.1763 600.986 45.7058 596.625 45.7058C586.055 45.7058 578.611 52.5336 578.611 52.5336L566.805 33.9099C566.805 33.9099 577.986 20.2544 601.597 20.2544C623.347 20.2544 637 33.9099 637 48.1899C637 69.2976 610.916 81.7179 610.916 81.7179V81.7043Z" fill="white"/>
    </g>
    <defs>
        <clipPath id="clip0_14_127">
            <rect width="637" height="109" fill="white" transform="translate(3.05176e-05 0.0153809)"/>
        </clipPath>
    </defs>
</svg>
