<svg width="327" height="172" viewBox="0 0 327 172" fill="none" xmlns="http://www.w3.org/2000/svg">
    <path d="M125.675 34.6079L131.248 0.26416H175.828L170.255 34.6079H203.69L198.118 68.9517H164.683L159.11 103.295H192.545L186.973 137.639H153.538L147.965 171.983H103.385L108.958 137.639H78.3005L72.728 171.983H28.1479L33.7204 137.639H0.285431L5.85793 103.295H39.293L44.8655 68.9517H11.4304L17.0029 34.6079H50.438L56.0105 0.26416H100.59L95.018 34.6079H125.675ZM83.873 103.295H114.53L120.103 68.9517H89.4455L83.873 103.295Z" fill="white"/>
    <path d="M326.285 0.26416V172H253.843V59.1441L212.041 71.4036V17.4446L259.415 0.26416H326.285Z" fill="white"/>
</svg>
