<svg width="1012" height="119" viewBox="0 0 1012 119" fill="none" xmlns="http://www.w3.org/2000/svg">
    <g clip-path="url(#clip0_401_119)">
        <path d="M441.528 76.8348H437.79H434.053V101.197H416.299V28.1104H444.331C463.019 28.1104 473.297 37.4804 473.297 53.4096C473.297 63.7167 468.625 71.2127 459.281 74.0237L476.1 102.134H455.543L441.528 76.8348ZM445.265 62.7796C451.806 62.7796 455.543 59.9686 455.543 53.4096C455.543 46.8505 451.806 44.0395 445.265 44.0395H434.053V63.7167H445.265V62.7796Z" fill="black"/>
        <path d="M512.541 41.2285C531.228 41.2285 544.31 54.3466 544.31 72.1498C544.31 89.9529 531.228 103.071 512.541 103.071C493.853 103.071 480.772 89.9529 480.772 72.1498C480.772 54.3466 493.853 41.2285 512.541 41.2285ZM512.541 87.1419C521.885 87.1419 527.491 80.5828 527.491 72.1498C527.491 62.7797 521.885 57.1576 512.541 57.1576C503.197 57.1576 497.591 63.7167 497.591 72.1498C497.591 81.5199 503.197 87.1419 512.541 87.1419Z" fill="black"/>
        <path d="M582.619 41.2285C601.307 41.2285 614.388 54.3466 614.388 72.1498C614.388 89.9529 601.307 103.071 582.619 103.071C563.932 103.071 550.85 89.9529 550.85 72.1498C550.85 54.3466 563.932 41.2285 582.619 41.2285ZM582.619 87.1419C591.963 87.1419 597.569 80.5828 597.569 72.1498C597.569 62.7797 591.963 57.1576 582.619 57.1576C573.275 57.1576 567.669 63.7167 567.669 72.1498C567.669 81.5199 573.275 87.1419 582.619 87.1419Z" fill="black"/>
        <path d="M639.616 58.0947V68.4018H659.238V82.4569H639.616V101.197H622.798V43.1025H666.714V59.0317H639.616V58.0947Z" fill="black"/>
        <path d="M730.251 71.2127C727.448 61.8426 725.58 55.2836 725.58 55.2836C725.58 55.2836 723.711 61.8426 720.908 72.1497L712.498 102.134H691.942L671.385 28.1104H691.007L699.417 59.9686C702.22 71.2127 704.089 77.7718 704.089 78.7088C704.089 78.7088 705.958 71.2127 707.826 62.7796L715.301 35.6064H736.792L744.267 62.7796C746.136 71.2127 748.005 77.7718 748.005 77.7718C748.005 77.7718 749.873 70.2757 752.677 59.9686L762.02 28.1104H779.774L758.283 102.134H738.661L730.251 71.2127Z" fill="black"/>
        <path d="M792.855 90.8895L790.052 101.197H773.233L793.789 42.165H814.346L834.902 101.197H818.083L815.28 90.8895H792.855ZM808.739 69.3383C805.002 59.9682 804.068 56.2202 804.068 56.2202C804.068 56.2202 802.199 60.9052 799.396 70.2753L797.527 76.8343H810.608L808.739 69.3383Z" fill="black"/>
        <path d="M866.671 58.0947V101.197H849.852V58.0947H831.165V43.1025H885.359V59.0317H866.671V58.0947Z" fill="black"/>
        <path d="M948.897 85.2674C944.225 95.5745 934.881 102.134 920.865 102.134C902.178 102.134 889.096 89.0154 889.096 71.2123C889.096 53.4091 902.178 40.291 920.865 40.291C933.946 40.291 944.225 46.8501 948.897 58.0942L933.012 61.8422C931.143 59.9682 927.406 55.2831 920.865 55.2831C911.521 55.2831 905.915 61.8422 905.915 70.2753C905.915 79.6453 912.456 85.2674 920.865 85.2674C927.406 85.2674 931.143 82.4564 933.012 78.7083L948.897 85.2674Z" fill="black"/>
        <path d="M994.681 101.197V79.6458H974.125V101.197H957.306V43.1025H974.125V64.6537H994.681V43.1025H1011.5V102.134H994.681V101.197Z" fill="black"/>
        <path d="M53.7597 0H0.500031V119H53.7597V0Z" fill="#281E9C"/>
        <path d="M216.342 0H163.082V119H216.342V0Z" fill="#281E9C"/>
        <path d="M345.287 0H292.027V119H345.287V0Z" fill="#281E9C"/>
        <path d="M137.854 0H66.8411V53.4095H137.854V0Z" fill="#281E9C"/>
        <path d="M281.749 43.1025H225.686V118.063H281.749V43.1025Z" fill="#281E9C"/>
        <path d="M136.92 118.063H83.6599L66.8411 65.5908H121.035L136.92 118.063Z" fill="#281E9C"/>
    </g>
    <defs>
        <clipPath id="clip0_401_119">
            <rect width="1011" height="119" fill="white" transform="translate(0.500031)"/>
        </clipPath>
    </defs>
</svg>
