<svg width="753" height="199" viewBox="0 0 753 199" fill="none" xmlns="http://www.w3.org/2000/svg">
    <g clip-path="url(#clip0_401_94)">
        <path d="M254.199 140.768H238.027V77.125H266.328C282.5 77.125 292.608 86.2168 292.608 99.3495C292.608 108.441 287.554 115.513 280.479 119.554L296.651 141.778H277.446L263.296 123.594H253.188V140.768H254.199ZM277.446 99.3495C277.446 94.2985 272.392 91.2679 266.328 91.2679H254.199V108.441H266.328C272.392 108.441 277.446 104.401 277.446 99.3495Z" fill="black"/>
        <path d="M347.188 118.543C347.188 132.686 337.081 142.788 321.919 142.788C306.758 142.788 296.651 132.686 296.651 118.543C296.651 104.4 306.758 94.2983 321.919 94.2983C337.081 94.2983 347.188 104.4 347.188 118.543ZM333.038 118.543C333.038 112.482 328.995 107.431 322.93 107.431C316.866 107.431 312.823 112.482 312.823 118.543C312.823 124.604 316.866 129.655 322.93 129.655C328.995 129.655 333.038 124.604 333.038 118.543Z" fill="black"/>
        <path d="M403.79 118.543C403.79 132.686 393.683 142.788 378.522 142.788C363.36 142.788 353.253 132.686 353.253 118.543C353.253 104.4 363.36 94.2983 378.522 94.2983C393.683 94.2983 403.79 104.4 403.79 118.543ZM388.629 118.543C388.629 112.482 384.586 107.431 378.522 107.431C372.457 107.431 368.414 112.482 368.414 118.543C368.414 124.604 372.457 129.655 378.522 129.655C384.586 129.655 388.629 124.604 388.629 118.543Z" fill="black"/>
        <path d="M448.263 108.441H432.091V140.768H416.93V108.441H405.812V95.3088H416.93V90.2577C416.93 77.1251 425.016 69.0435 437.145 69.0435C441.188 69.0435 444.22 69.0435 449.274 71.0639L447.253 84.1965C445.231 84.1965 442.199 83.1863 440.177 83.1863C435.124 83.1863 432.091 86.2169 432.091 90.2577V96.319H448.263V108.441Z" fill="black"/>
        <path d="M512.952 141.778L499.812 102.38L487.683 141.778H472.521L451.296 77.125H468.478L480.608 117.533L493.747 78.1352H506.887L520.027 117.533L532.156 78.1352H549.339L529.124 141.778H512.952Z" fill="black"/>
        <path d="M581.683 140.768V137.738C578.65 139.758 574.607 140.768 569.554 140.768C557.425 140.768 546.306 130.666 546.306 116.523C546.306 102.38 556.414 92.2783 569.554 92.2783C574.607 92.2783 578.65 93.2885 581.683 95.3089H596.844V140.768H581.683ZM581.683 125.615V111.472C578.65 108.442 575.618 107.431 572.586 107.431C566.521 107.431 561.468 112.482 561.468 118.544C561.468 124.605 565.511 129.656 572.586 129.656C575.618 129.656 579.661 128.646 581.683 125.615Z" fill="black"/>
        <path d="M630.199 142.788C619.081 142.788 612.005 134.707 612.005 122.584V109.452H602.909V95.3088H612.005V80.1558H627.167V95.3088H642.328V108.441H627.167V121.574C627.167 126.625 630.199 128.646 634.242 128.646C636.263 128.646 639.296 128.646 642.328 127.635L644.349 140.768C638.285 141.778 635.253 142.788 630.199 142.788Z" fill="black"/>
        <path d="M682.758 122.584H696.909C695.898 134.707 685.79 142.788 673.661 142.788C659.511 142.788 648.392 132.686 648.392 118.543C648.392 104.4 658.5 94.2983 673.661 94.2983C686.801 94.2983 695.898 102.38 696.909 114.502H682.758C681.747 110.462 678.715 107.431 673.661 107.431C667.597 107.431 663.554 112.482 663.554 118.543C663.554 124.604 667.597 129.655 673.661 129.655C678.715 129.655 681.747 126.625 682.758 122.584Z" fill="black"/>
        <path d="M752.5 114.502V140.768H737.339V117.533C737.339 111.472 734.306 107.431 729.253 107.431C726.22 107.431 723.188 109.451 721.167 112.482V140.768H706.005V74.0942H721.167V98.3391C725.21 95.3085 729.253 94.2983 734.306 94.2983C744.414 94.2983 752.5 101.37 752.5 114.502Z" fill="black"/>
        <path d="M121.79 139.758L63.1667 197.34L37.8979 171.074L95.5108 113.493L121.79 139.758Z" fill="#003D87"/>
        <path d="M95.5108 113.493L154.134 172.085L127.855 198.35L70.2419 139.758L95.5108 113.493Z" fill="#003D87"/>
        <path d="M160.199 166.023L134.93 137.737C147.059 126.625 153.124 111.472 153.124 95.3088C153.124 63.9925 127.855 38.7374 96.5215 38.7374C65.1882 38.7374 39.9194 63.9925 39.9194 95.3088C39.9194 110.462 45.9839 125.615 58.1129 136.727L31.8333 164.003C11.6183 146.829 0.5 121.574 0.5 95.3088C0.5 42.7782 42.9516 0.349609 95.5107 0.349609C148.07 0.349609 190.521 42.7782 190.521 95.3088C190.521 122.584 179.403 147.839 160.199 166.023Z" fill="#0095FF"/>
        <path d="M95.5108 97.3291L68.2204 125.615C60.1344 118.543 56.0914 107.431 56.0914 97.3291C56.0914 76.1148 74.2849 57.9312 95.5108 57.9312C116.737 57.9312 134.93 76.1148 134.93 97.3291C134.93 108.441 130.887 118.543 122.801 125.615L95.5108 97.3291Z" fill="#0068CE"/>
    </g>
    <defs>
        <clipPath id="clip0_401_94">
            <rect width="752" height="198" fill="white" transform="translate(0.5 0.349609)"/>
        </clipPath>
    </defs>
</svg>
