<svg width="886" height="226" viewBox="0 0 886 226" fill="none" xmlns="http://www.w3.org/2000/svg">
    <g clip-path="url(#clip0_401_2)">
        <path d="M99.9466 108.656L45.85 162.803L99.9466 216.95L154.043 162.803L99.9466 108.656Z" fill="#4AE407"/>
        <path d="M58.9513 150.375L0.847641 208.533L8.86195 216.555L66.9656 158.397L58.9513 150.375Z" fill="#4AE407"/>
        <path d="M200.319 117.053L146.223 171.199L200.319 225.346L254.416 171.199L200.319 117.053Z" fill="#00D17C"/>
        <path d="M157.989 158.771L99.8857 216.929L107.9 224.951L166.004 166.793L157.989 158.771Z" fill="#00D17C"/>
        <path d="M100.282 0.745737L46.185 54.8924L100.282 109.039L154.378 54.8924L100.282 0.745737Z" fill="#005E72"/>
        <path d="M58.6184 41.7962L0.514709 99.9537L8.52901 107.975L66.6327 49.8179L58.6184 41.7962Z" fill="#005E72"/>
        <path d="M199.987 8.47346L145.891 62.6201L199.987 116.767L254.084 62.6201L199.987 8.47346Z" fill="#00969C"/>
        <path d="M158.324 50.8609L100.221 109.018L108.235 117.04L166.339 58.8826L158.324 50.8609Z" fill="#00969C"/>
        <path d="M308.265 74.0276H346.989C363.046 74.0276 374.38 84.4267 374.38 98.6074C374.38 108.061 368.713 116.57 359.268 120.351L376.269 152.494H357.379L342.267 123.187H326.21V152.494H309.209V74.0276H308.265ZM345.1 109.007C351.712 109.007 356.434 105.225 356.434 98.6074C356.434 91.9898 351.712 88.2083 345.1 88.2083H325.266V108.061H345.1V109.007Z" fill="black"/>
        <path d="M377.214 123.187C377.214 106.17 390.437 92.9352 408.382 92.9352C425.383 92.9352 439.551 106.17 439.551 123.187C439.551 140.204 426.328 153.439 408.382 153.439C390.437 153.439 377.214 140.204 377.214 123.187ZM423.494 123.187C423.494 113.733 416.883 107.116 408.382 107.116C399.882 107.116 393.27 114.679 393.27 123.187C393.27 132.641 399.882 139.259 408.382 139.259C416.883 139.259 423.494 132.641 423.494 123.187Z" fill="black"/>
        <path d="M446.162 123.187C446.162 106.17 459.385 92.9352 477.331 92.9352C494.332 92.9352 508.5 106.17 508.5 123.187C508.5 140.204 495.276 153.439 477.331 153.439C459.385 153.439 446.162 140.204 446.162 123.187ZM492.443 123.187C492.443 113.733 485.831 107.116 477.331 107.116C468.83 107.116 462.219 114.679 462.219 123.187C462.219 132.641 468.83 139.259 477.331 139.259C485.831 139.259 492.443 132.641 492.443 123.187Z" fill="black"/>
        <path d="M523.612 107.116H510.389V93.8805H523.612V89.1536C523.612 75.9183 531.168 68.3553 546.28 68.3553C549.113 68.3553 552.891 68.3553 555.725 69.3007V82.536C552.891 81.5906 551.002 81.5906 549.113 81.5906C543.446 81.5906 540.613 83.4814 540.613 89.1536V93.8805H556.669V107.116H540.613V151.549H524.556V107.116H523.612Z" fill="black"/>
        <path d="M560.447 74.0276H578.393L588.782 125.078L603.894 74.0276H619.951L635.063 125.078L645.453 74.0276H662.454L642.619 152.494H624.673L609.561 99.5528L595.394 152.494H577.448L560.447 74.0276Z" fill="black"/>
        <path d="M661.509 135.477C661.509 124.133 670.01 117.515 685.122 117.515C689.844 117.515 694.567 118.46 699.289 119.406V115.624C699.289 109.007 695.511 106.17 687.011 106.17C682.288 106.17 676.621 108.061 669.065 110.897L663.398 98.6074C672.843 94.8259 681.344 91.9898 689.844 91.9898C705.901 91.9898 714.401 99.5528 714.401 113.733V151.549H698.345V147.767C693.622 151.549 687.955 152.494 681.344 152.494C670.01 153.439 661.509 145.876 661.509 135.477ZM686.066 142.095C690.789 142.095 694.567 141.149 698.345 138.313V129.805C694.567 128.86 690.789 127.914 687.011 127.914C680.399 127.914 676.621 130.75 676.621 134.532C676.621 139.259 680.399 142.095 686.066 142.095Z" fill="black"/>
        <path d="M732.347 135.477V107.116H720.068V93.8805H732.347V78.7545L748.403 75.9183V93.8805H764.46V107.116H748.403V131.696C748.403 137.368 750.293 139.259 755.96 139.259C758.793 139.259 760.682 139.259 764.46 138.313V151.549C760.682 152.494 755.96 153.439 752.182 153.439C738.958 153.439 732.347 146.822 732.347 135.477Z" fill="black"/>
        <path d="M768.238 123.187C768.238 106.17 781.461 92.9352 798.462 92.9352C807.907 92.9352 816.408 96.7167 823.019 103.334L813.574 113.733C809.796 109.007 805.074 107.116 799.407 107.116C790.906 107.116 784.295 113.733 784.295 123.187C784.295 132.641 790.906 139.259 799.407 139.259C804.129 139.259 808.852 137.368 812.63 132.641L822.075 143.04C816.408 149.658 806.963 153.439 798.462 153.439C781.461 153.439 768.238 140.204 768.238 123.187Z" fill="black"/>
        <path d="M830.575 74.0276L846.632 70.2461V97.662C851.354 93.8805 856.077 91.9898 862.688 91.9898C875.912 91.9898 885.356 101.444 885.356 115.624V151.549H869.3V117.515C869.3 109.952 864.577 106.17 857.966 106.17C853.243 106.17 849.465 108.061 846.632 111.843V151.549H830.575V74.0276Z" fill="black"/>
    </g>
    <defs>
        <clipPath id="clip0_401_2">
            <rect width="885" height="225" fill="white" transform="translate(0.356506 0.288086)"/>
        </clipPath>
    </defs>
</svg>
