<svg width="596" height="152" viewBox="0 0 596 152" fill="none" xmlns="http://www.w3.org/2000/svg">
    <path d="M33.0519 64.5383V54.1046H46.4538C49.2721 54.1046 51.4308 53.385 52.9299 51.9459C54.4889 50.5068 55.2685 48.5579 55.2685 46.0994C55.2685 43.8208 54.5189 41.932 53.0198 40.4329C51.5207 38.9338 49.362 38.1842 46.5437 38.1842H33.0519V27.2109H48.1628C52.3602 27.2109 56.048 28.0204 59.2261 29.6394C62.4041 31.1985 64.8926 33.3871 66.6915 36.2054C68.4904 39.0237 69.3899 42.2618 69.3899 45.9195C69.3899 49.6373 68.4904 52.9053 66.6915 55.7236C64.8926 58.4819 62.3741 60.6406 59.1361 62.1997C55.8981 63.7587 52.0904 64.5383 47.713 64.5383H33.0519ZM22.2584 90.7124V27.2109H36.3799V90.7124H22.2584ZM56.7975 90.7124L37.0095 63.369L49.9617 59.8611L73.5274 90.7124H56.7975ZM109.752 91.7917C104.955 91.7917 100.518 90.9523 96.4403 89.2733C92.4227 87.5943 88.8849 85.2557 85.8267 82.2575C82.7686 79.2593 80.4 75.7814 78.721 71.8238C77.0421 67.8063 76.2026 63.4889 76.2026 58.8717C76.2026 54.1945 77.0421 49.8771 78.721 45.9195C80.4 41.9619 82.7386 38.514 85.7368 35.5758C88.735 32.5776 92.2428 30.269 96.2604 28.65C100.338 26.971 104.775 26.1315 109.572 26.1315C114.309 26.1315 118.687 26.971 122.704 28.65C126.782 30.269 130.32 32.5776 133.318 35.5758C136.376 38.514 138.745 41.9919 140.424 46.0095C142.103 49.9671 142.942 54.2845 142.942 58.9616C142.942 63.5788 142.103 67.8962 140.424 71.9138C138.745 75.8714 136.406 79.3493 133.408 82.3475C130.41 85.2857 126.872 87.5943 122.794 89.2733C118.777 90.9523 114.429 91.7917 109.752 91.7917ZM109.572 78.9295C113.35 78.9295 116.648 78.09 119.466 76.4111C122.345 74.7321 124.563 72.3935 126.122 69.3953C127.681 66.3372 128.461 62.8293 128.461 58.8717C128.461 55.8735 128.011 53.1751 127.112 50.7766C126.212 48.3181 124.923 46.2194 123.244 44.4804C121.565 42.6815 119.556 41.3323 117.218 40.4329C114.939 39.4734 112.391 38.9937 109.572 38.9937C105.795 38.9937 102.467 39.8332 99.5884 41.5122C96.7701 43.1312 94.5814 45.4398 93.0224 48.438C91.4633 51.3762 90.6838 54.8541 90.6838 58.8717C90.6838 61.8699 91.1335 64.5982 92.033 67.0567C92.9324 69.5152 94.1917 71.644 95.8107 73.4429C97.4897 75.1818 99.4985 76.531 101.837 77.4904C104.176 78.4498 106.754 78.9295 109.572 78.9295ZM183.096 91.7917C178.299 91.7917 173.862 90.9523 169.785 89.2733C165.767 87.5943 162.229 85.2557 159.171 82.2575C156.113 79.2593 153.744 75.7814 152.065 71.8238C150.386 67.8063 149.547 63.4889 149.547 58.8717C149.547 54.1945 150.386 49.8771 152.065 45.9195C153.744 41.9619 156.083 38.514 159.081 35.5758C162.079 32.5776 165.587 30.269 169.605 28.65C173.682 26.971 178.119 26.1315 182.917 26.1315C187.654 26.1315 192.031 26.971 196.049 28.65C200.126 30.269 203.664 32.5776 206.662 35.5758C209.72 38.514 212.089 41.9919 213.768 46.0095C215.447 49.9671 216.286 54.2845 216.286 58.9616C216.286 63.5788 215.447 67.8962 213.768 71.9138C212.089 75.8714 209.75 79.3493 206.752 82.3475C203.754 85.2857 200.216 87.5943 196.139 89.2733C192.121 90.9523 187.774 91.7917 183.096 91.7917ZM182.917 78.9295C186.694 78.9295 189.992 78.09 192.811 76.4111C195.689 74.7321 197.908 72.3935 199.467 69.3953C201.026 66.3372 201.805 62.8293 201.805 58.8717C201.805 55.8735 201.355 53.1751 200.456 50.7766C199.557 48.3181 198.267 46.2194 196.588 44.4804C194.909 42.6815 192.901 41.3323 190.562 40.4329C188.283 39.4734 185.735 38.9937 182.917 38.9937C179.139 38.9937 175.811 39.8332 172.933 41.5122C170.114 43.1312 167.926 45.4398 166.367 48.438C164.808 51.3762 164.028 54.8541 164.028 58.8717C164.028 61.8699 164.478 64.5982 165.377 67.0567C166.277 69.5152 167.536 71.644 169.155 73.4429C170.834 75.1818 172.843 76.531 175.181 77.4904C177.52 78.4498 180.098 78.9295 182.917 78.9295ZM225.251 90.7124V27.2109H239.372V90.7124H225.251ZM236.044 65.7975V53.6548H267.795V65.7975H236.044ZM236.044 39.3535V27.2109H269.234V39.3535H236.044ZM294.135 90.7124L273.717 27.2109H287.749L302.68 76.0513H297.193L311.764 27.2109H322.828L337.399 76.0513H332.002L346.843 27.2109H360.785L340.367 90.7124H329.304L314.642 41.872H319.859L305.198 90.7124H294.135ZM356.632 90.7124L381.816 27.2109H394.589L419.504 90.7124H404.573L385.504 38.0043H390.631L371.293 90.7124H356.632ZM370.933 79.1994V67.6864H405.562V79.1994H370.933ZM434.668 90.7124V28.1103H448.79V90.7124H434.668ZM414.79 39.5334V27.2109H468.668V39.5334H414.79ZM503.347 91.7018C498.61 91.7018 494.203 90.8923 490.125 89.2733C486.108 87.5943 482.57 85.2557 479.512 82.2575C476.514 79.2593 474.175 75.7814 472.496 71.8238C470.817 67.8063 469.978 63.4889 469.978 58.8717C469.978 54.2545 470.817 49.9671 472.496 46.0095C474.175 41.9919 476.514 38.514 479.512 35.5758C482.51 32.6376 486.018 30.359 490.036 28.7399C494.113 27.061 498.52 26.2215 503.258 26.2215C508.294 26.2215 512.762 27.031 516.659 28.65C520.617 30.269 524.065 32.4877 527.003 35.306L517.559 44.8402C515.88 43.0413 513.841 41.6321 511.443 40.6127C509.104 39.5934 506.376 39.0837 503.258 39.0837C500.499 39.0837 497.951 39.5634 495.612 40.5228C493.334 41.4223 491.355 42.7415 489.676 44.4804C488.057 46.2194 486.768 48.3181 485.808 50.7766C484.909 53.2351 484.459 55.9335 484.459 58.8717C484.459 61.8699 484.909 64.5982 485.808 67.0567C486.768 69.5152 488.057 71.614 489.676 73.3529C491.355 75.0919 493.334 76.441 495.612 77.4005C497.951 78.3599 500.499 78.8396 503.258 78.8396C506.496 78.8396 509.314 78.3299 511.712 77.3105C514.111 76.2911 516.18 74.882 517.919 73.0831L527.453 82.6173C524.395 85.4356 520.887 87.6543 516.929 89.2733C513.032 90.8923 508.504 91.7018 503.347 91.7018ZM535.229 90.7124V27.2109H549.35V90.7124H535.229ZM574.535 90.7124V27.2109H588.746V90.7124H574.535ZM543.684 64.1785V51.9459H579.212V64.1785H543.684Z" fill="white"/>
    <path d="M22.8622 141.712V113.472H29.1422V141.712H22.8622ZM27.7022 141.712V136.192H41.6622V141.712H27.7022ZM57.2015 142.192C55.0682 142.192 53.0949 141.819 51.2815 141.072C49.4949 140.326 47.9215 139.286 46.5615 137.952C45.2015 136.619 44.1482 135.072 43.4015 133.312C42.6549 131.526 42.2815 129.606 42.2815 127.552C42.2815 125.472 42.6549 123.552 43.4015 121.792C44.1482 120.032 45.1882 118.499 46.5215 117.192C47.8549 115.859 49.4149 114.832 51.2015 114.112C53.0149 113.366 54.9882 112.992 57.1215 112.992C59.2282 112.992 61.1749 113.366 62.9615 114.112C64.7749 114.832 66.3482 115.859 67.6815 117.192C69.0415 118.499 70.0949 120.046 70.8415 121.832C71.5882 123.592 71.9615 125.512 71.9615 127.592C71.9615 129.646 71.5882 131.566 70.8415 133.352C70.0949 135.112 69.0549 136.659 67.7215 137.992C66.3882 139.299 64.8149 140.326 63.0015 141.072C61.2149 141.819 59.2815 142.192 57.2015 142.192ZM57.1215 136.472C58.8015 136.472 60.2682 136.099 61.5215 135.352C62.8015 134.606 63.7882 133.566 64.4815 132.232C65.1749 130.872 65.5215 129.312 65.5215 127.552C65.5215 126.219 65.3215 125.019 64.9215 123.952C64.5215 122.859 63.9482 121.926 63.2015 121.152C62.4549 120.352 61.5615 119.752 60.5215 119.352C59.5082 118.926 58.3749 118.712 57.1215 118.712C55.4415 118.712 53.9615 119.086 52.6815 119.832C51.4282 120.552 50.4549 121.579 49.7615 122.912C49.0682 124.219 48.7215 125.766 48.7215 127.552C48.7215 128.886 48.9215 130.099 49.3215 131.192C49.7215 132.286 50.2815 133.232 51.0015 134.032C51.7482 134.806 52.6415 135.406 53.6815 135.832C54.7215 136.259 55.8682 136.472 57.1215 136.472ZM89.6587 142.152C87.6054 142.152 85.672 141.779 83.8587 141.032C82.072 140.286 80.512 139.259 79.1787 137.952C77.8454 136.619 76.792 135.072 76.0187 133.312C75.272 131.526 74.8987 129.606 74.8987 127.552C74.8987 125.499 75.2854 123.592 76.0587 121.832C76.832 120.072 77.8987 118.539 79.2587 117.232C80.6454 115.899 82.2587 114.872 84.0987 114.152C85.9387 113.406 87.912 113.032 90.0187 113.032C92.4454 113.032 94.6454 113.472 96.6187 114.352C98.6187 115.232 100.272 116.446 101.579 117.992L97.2987 122.272C96.392 121.099 95.3254 120.219 94.0987 119.632C92.872 119.046 91.4854 118.752 89.9387 118.752C88.2854 118.752 86.8054 119.126 85.4987 119.872C84.192 120.592 83.1654 121.619 82.4187 122.952C81.6987 124.259 81.3387 125.792 81.3387 127.552C81.3387 129.312 81.6987 130.859 82.4187 132.192C83.1387 133.526 84.1254 134.566 85.3787 135.312C86.632 136.059 88.072 136.432 89.6987 136.432C91.352 136.432 92.752 136.126 93.8987 135.512C95.072 134.872 95.9654 133.966 96.5787 132.792C97.2187 131.592 97.5387 130.139 97.5387 128.432L101.699 131.232L89.0987 131.032V125.712H103.939V126.632C103.939 130.019 103.325 132.872 102.099 135.192C100.899 137.486 99.2187 139.219 97.0587 140.392C94.9254 141.566 92.4587 142.152 89.6587 142.152ZM121.616 142.192C119.482 142.192 117.509 141.819 115.696 141.072C113.909 140.326 112.336 139.286 110.976 137.952C109.616 136.619 108.562 135.072 107.816 133.312C107.069 131.526 106.696 129.606 106.696 127.552C106.696 125.472 107.069 123.552 107.816 121.792C108.562 120.032 109.602 118.499 110.936 117.192C112.269 115.859 113.829 114.832 115.616 114.112C117.429 113.366 119.402 112.992 121.536 112.992C123.642 112.992 125.589 113.366 127.376 114.112C129.189 114.832 130.762 115.859 132.096 117.192C133.456 118.499 134.509 120.046 135.256 121.832C136.002 123.592 136.376 125.512 136.376 127.592C136.376 129.646 136.002 131.566 135.256 133.352C134.509 135.112 133.469 136.659 132.136 137.992C130.802 139.299 129.229 140.326 127.416 141.072C125.629 141.819 123.696 142.192 121.616 142.192ZM121.536 136.472C123.216 136.472 124.682 136.099 125.936 135.352C127.216 134.606 128.202 133.566 128.896 132.232C129.589 130.872 129.936 129.312 129.936 127.552C129.936 126.219 129.736 125.019 129.336 123.952C128.936 122.859 128.362 121.926 127.616 121.152C126.869 120.352 125.976 119.752 124.936 119.352C123.922 118.926 122.789 118.712 121.536 118.712C119.856 118.712 118.376 119.086 117.096 119.832C115.842 120.552 114.869 121.579 114.176 122.912C113.482 124.219 113.136 125.766 113.136 127.552C113.136 128.886 113.336 130.099 113.736 131.192C114.136 132.286 114.696 133.232 115.416 134.032C116.162 134.806 117.056 135.406 118.096 135.832C119.136 136.259 120.282 136.472 121.536 136.472ZM152.779 131.432V126.552H158.859C159.633 126.552 160.339 126.392 160.979 126.072C161.619 125.752 162.126 125.286 162.499 124.672C162.873 124.059 163.059 123.312 163.059 122.432C163.059 121.579 162.873 120.846 162.499 120.232C162.126 119.619 161.619 119.152 160.979 118.832C160.339 118.512 159.633 118.352 158.859 118.352H152.779V113.472H159.779C161.566 113.472 163.179 113.832 164.619 114.552C166.059 115.272 167.193 116.312 168.019 117.672C168.873 119.006 169.299 120.592 169.299 122.432C169.299 124.272 168.873 125.872 168.019 127.232C167.193 128.566 166.059 129.606 164.619 130.352C163.179 131.072 161.566 131.432 159.779 131.432H152.779ZM147.979 141.712V113.472H154.259V141.712H147.979ZM177.623 130.072V125.432H183.583C184.836 125.432 185.796 125.112 186.463 124.472C187.156 123.832 187.503 122.966 187.503 121.872C187.503 120.859 187.17 120.019 186.503 119.352C185.836 118.686 184.876 118.352 183.623 118.352H177.623V113.472H184.343C186.21 113.472 187.85 113.832 189.263 114.552C190.676 115.246 191.783 116.219 192.583 117.472C193.383 118.726 193.783 120.166 193.783 121.792C193.783 123.446 193.383 124.899 192.583 126.152C191.783 127.379 190.663 128.339 189.223 129.032C187.783 129.726 186.09 130.072 184.143 130.072H177.623ZM172.823 141.712V113.472H179.103V141.712H172.823ZM188.183 141.712L179.383 129.552L185.143 127.992L195.623 141.712H188.183ZM198.37 141.712V113.472H204.65V141.712H198.37ZM203.17 141.712V136.272H218.65V141.712H203.17ZM203.17 129.912V124.672H217.25V129.912H203.17ZM203.17 118.872V113.472H218.45V118.872H203.17ZM230.756 142.152C228.436 142.152 226.436 141.779 224.756 141.032C223.103 140.259 221.583 139.099 220.196 137.552L224.276 133.512C225.183 134.552 226.183 135.366 227.276 135.952C228.396 136.512 229.69 136.792 231.156 136.792C232.49 136.792 233.516 136.552 234.236 136.072C234.983 135.592 235.356 134.926 235.356 134.072C235.356 133.299 235.116 132.672 234.636 132.192C234.156 131.712 233.516 131.299 232.716 130.952C231.943 130.606 231.076 130.272 230.116 129.952C229.183 129.632 228.25 129.272 227.316 128.872C226.383 128.446 225.516 127.926 224.716 127.312C223.943 126.672 223.316 125.886 222.836 124.952C222.356 123.992 222.116 122.792 222.116 121.352C222.116 119.619 222.53 118.126 223.356 116.872C224.21 115.619 225.383 114.672 226.876 114.032C228.37 113.366 230.09 113.032 232.036 113.032C234.01 113.032 235.81 113.379 237.436 114.072C239.09 114.766 240.45 115.712 241.516 116.912L237.436 120.952C236.583 120.072 235.716 119.419 234.836 118.992C233.983 118.566 233.01 118.352 231.916 118.352C230.823 118.352 229.956 118.566 229.316 118.992C228.676 119.392 228.356 119.979 228.356 120.752C228.356 121.472 228.596 122.059 229.076 122.512C229.556 122.939 230.183 123.312 230.956 123.632C231.756 123.952 232.623 124.272 233.556 124.592C234.516 124.912 235.463 125.286 236.396 125.712C237.33 126.139 238.183 126.686 238.956 127.352C239.756 127.992 240.396 128.819 240.876 129.832C241.356 130.819 241.596 132.046 241.596 133.512C241.596 136.206 240.636 138.326 238.716 139.872C236.796 141.392 234.143 142.152 230.756 142.152ZM245.597 141.712V113.472H251.877V141.712H245.597ZM250.397 141.712V136.272H265.877V141.712H250.397ZM250.397 129.912V124.672H264.477V129.912H250.397ZM250.397 118.872V113.472H265.677V118.872H250.397ZM270.206 141.712V113.472H274.606L276.486 119.112V141.712H270.206ZM289.686 141.712L273.046 120.392L274.606 113.472L291.246 134.792L289.686 141.712ZM289.686 141.712L288.006 136.072V113.472H294.286V141.712H289.686ZM306.657 141.712V113.872H312.937V141.712H306.657ZM297.817 118.952V113.472H321.777V118.952H297.817ZM319.687 141.712L330.887 113.472H336.567L347.647 141.712H341.007L332.527 118.272H334.807L326.207 141.712H319.687ZM326.047 136.592V131.472H341.447V136.592H326.047ZM354.392 141.712V113.872H360.672V141.712H354.392ZM345.552 118.952V113.472H369.512V118.952H345.552ZM373.018 141.712V113.472H379.298V141.712H373.018ZM398.217 142.192C396.084 142.192 394.11 141.819 392.297 141.072C390.51 140.326 388.937 139.286 387.577 137.952C386.217 136.619 385.164 135.072 384.417 133.312C383.67 131.526 383.297 129.606 383.297 127.552C383.297 125.472 383.67 123.552 384.417 121.792C385.164 120.032 386.204 118.499 387.537 117.192C388.87 115.859 390.43 114.832 392.217 114.112C394.03 113.366 396.004 112.992 398.137 112.992C400.244 112.992 402.19 113.366 403.977 114.112C405.79 114.832 407.364 115.859 408.697 117.192C410.057 118.499 411.11 120.046 411.857 121.832C412.604 123.592 412.977 125.512 412.977 127.592C412.977 129.646 412.604 131.566 411.857 133.352C411.11 135.112 410.07 136.659 408.737 137.992C407.404 139.299 405.83 140.326 404.017 141.072C402.23 141.819 400.297 142.192 398.217 142.192ZM398.137 136.472C399.817 136.472 401.284 136.099 402.537 135.352C403.817 134.606 404.804 133.566 405.497 132.232C406.19 130.872 406.537 129.312 406.537 127.552C406.537 126.219 406.337 125.019 405.937 123.952C405.537 122.859 404.964 121.926 404.217 121.152C403.47 120.352 402.577 119.752 401.537 119.352C400.524 118.926 399.39 118.712 398.137 118.712C396.457 118.712 394.977 119.086 393.697 119.832C392.444 120.552 391.47 121.579 390.777 122.912C390.084 124.219 389.737 125.766 389.737 127.552C389.737 128.886 389.937 130.099 390.337 131.192C390.737 132.286 391.297 133.232 392.017 134.032C392.764 134.806 393.657 135.406 394.697 135.832C395.737 136.259 396.884 136.472 398.137 136.472ZM416.964 141.712V113.472H421.364L423.244 119.112V141.712H416.964ZM436.444 141.712L419.804 120.392L421.364 113.472L438.004 134.792L436.444 141.712ZM436.444 141.712L434.764 136.072V113.472H441.044V141.712H436.444Z" fill="black"/>
    <rect x="0.142151" y="26.7124" width="9" height="115" fill="white"/>
</svg>
