<svg width="783" height="347" viewBox="0 0 783 347" fill="none" xmlns="http://www.w3.org/2000/svg">
    <g clip-path="url(#clip0_15_19)">
        <path d="M7.75629 0.949219V53.6567H43.8818V161.345H103.456V53.6567H146.992V0.949219H7.75629Z" fill="white"/>
        <path d="M197.395 55.9456H234.065V0.949219H293.639V161.345H234.065V106.348H197.395V161.345H137.821V0.949219H197.395V55.9456Z" fill="white"/>
        <path d="M454.275 161.345H387.818L383.241 138.424H353.454L348.876 161.345H282.435L329.381 0.949219H407.282C407.506 1.86156 454.259 161.345 454.259 161.345H454.275ZM376.358 101.771L368.339 60.5233L360.32 101.771H376.358Z" fill="white"/>
        <path d="M502.613 90.3103V161.345H443.039V0.949219H509.496L548.455 71.9835V0.949219H608.029V161.345H541.572L502.613 90.3103Z" fill="white"/>
        <path d="M734.06 81.1549L782.174 161.345H713.428L681.352 97.1928V161.345H621.778V0.949219H681.352V65.101L708.851 0.949219H777.596L734.06 81.1549Z" fill="white"/>
        <path d="M75.9578 228.952L91.9958 183.127H160.742L105.745 281.643V343.522H46.1707V281.643L-8.82593 183.127H59.9198L75.9578 228.952Z" fill="white"/>
        <path d="M218.027 346.949C165.319 346.949 128.666 310.28 128.666 263.318C128.666 216.357 165.319 179.688 218.027 179.688C270.735 179.688 307.388 216.357 307.388 263.318C307.388 310.28 270.735 346.949 218.027 346.949ZM218.027 235.82C204.278 235.82 192.818 247.281 192.818 263.318C192.818 279.356 204.278 290.817 218.027 290.817C231.776 290.817 243.236 279.356 243.236 263.318C243.236 247.281 231.776 235.82 218.027 235.82Z" fill="white"/>
        <path d="M399.279 269.047V183.127H458.853V269.047C458.853 314.872 426.777 346.948 380.952 346.948C335.127 346.948 303.051 314.872 303.051 269.047V183.127H362.625V269.047C362.625 281.643 370.644 289.662 380.952 289.662C391.26 289.662 399.279 281.643 399.279 269.047Z" fill="white"/>
        <path d="M510.648 283.934H467.112L459.093 173.941H518.667L510.648 283.934ZM512.937 343.508H464.823V297.683H512.937V343.508Z" fill="white"/>
    </g>
    <defs>
        <clipPath id="clip0_15_19">
            <rect width="791" height="346" fill="white" transform="translate(-8.82593 0.949219)"/>
        </clipPath>
    </defs>
</svg>
